<?xml version="1.0" encoding="utf-8"?>
<!-- Generator: Adobe Illustrator 24.3.0, SVG Export Plug-In . SVG Version: 6.00 Build 0)  -->
<svg version="1.1" id="Layer_1" xmlns="http://www.w3.org/2000/svg" xmlns:xlink="http://www.w3.org/1999/xlink" x="0px" y="0px"
	 viewBox="0 0 98.4 98.4" style="enable-background:new 0 0 98.4 98.4;" xml:space="preserve">
<style type="text/css">
	.st0{fill:#FFFFFF;stroke:url(#SVGID_1_);stroke-width:1.83;stroke-miterlimit:10;}
	.st1{fill:#E6E7E8;}
	.st2{fill:url(#SVGID_2_);}
	.st3{fill:url(#SVGID_3_);}
	.st4{fill:url(#SVGID_4_);}
</style>
<linearGradient id="SVGID_1_" gradientUnits="userSpaceOnUse" x1="5.001962e-03" y1="50.78" x2="98.435" y2="50.78" gradientTransform="matrix(1 0 0 -1 0 100)">
	<stop  offset="0" style="stop-color:#2981F2"/>
	<stop  offset="1" style="stop-color:#276EBF"/>
</linearGradient>
<circle class="st0" cx="49.2" cy="49.2" r="48.3"/>
<circle class="st1" cx="49.2" cy="49.2" r="32.3"/>
<path d="M38.1,56.6l2.2-10.4L34,56.6h-3l-2.1-10.4l-2.2,10.4h-3.2l3.6-17.2h4.1l2.2,12l7.4-12h4l-3.6,17.2H38.1z"/>
<path d="M46.9,56.6c-0.6,0.1-1.3-0.1-1.8-0.4c-0.4-0.4-0.6-0.9-0.6-1.4c0-0.2,0-0.3,0-0.5c0-0.2,0.1-0.4,0.1-0.6l2.4-11.2
	c0.1-0.9,0.5-1.6,1.1-2.3c0.7-0.5,1.6-0.8,2.4-0.7h9.7l-0.7,3.4h-7.8c-0.3,0-0.6,0-0.8,0.2c-0.2,0.2-0.3,0.5-0.3,0.8l-1.8,8.4
	c0,0.1,0,0.2,0,0.2c0,0.1,0,0.1,0,0.2c0,0.2,0.1,0.3,0.2,0.4c0.2,0.1,0.4,0.2,0.7,0.1h7.8l-0.8,3.5H46.9z"/>
<path d="M59,56.6l2.7-12.5h3.8l-2,9.2h5.4c0.9,0,1.5-0.5,1.7-1.7l1.6-7.2c0-0.2,0.1-0.4,0.1-0.6c0-0.7-0.4-1.1-1.1-1.1h-9.3l0.7-3.4
	h9.9c2.5,0,3.8,1,3.8,3c0,0.5,0,0.9-0.1,1.4l-1.8,8.4c-0.2,1.3-0.8,2.4-1.8,3.3c-1,0.8-2.3,1.2-3.6,1.1L59,56.6z"/>
<linearGradient id="SVGID_2_" gradientUnits="userSpaceOnUse" x1="24.23" y1="51.2" x2="77.12" y2="51.2" gradientTransform="matrix(1 0 0 -1 -0.78 99.22)">
	<stop  offset="0" style="stop-color:#2981F2"/>
	<stop  offset="1" style="stop-color:#276EBF"/>
</linearGradient>
<path class="st2" d="M38.1,56.6l2.2-10.4L34,56.6h-3l-2.1-10.4l-2.2,10.4h-3.2l3.6-17.2h4.1l2.2,12l7.4-12h4l-3.6,17.2H38.1z"/>
<linearGradient id="SVGID_3_" gradientUnits="userSpaceOnUse" x1="24.23" y1="51.172" x2="77.12" y2="51.172" gradientTransform="matrix(1 0 0 -1 -0.78 99.22)">
	<stop  offset="0" style="stop-color:#2981F2"/>
	<stop  offset="1" style="stop-color:#276EBF"/>
</linearGradient>
<path class="st3" d="M46.9,56.6c-0.6,0.1-1.3-0.1-1.8-0.4c-0.4-0.4-0.6-0.9-0.6-1.4c0-0.2,0-0.3,0-0.5c0-0.2,0.1-0.4,0.1-0.6
	l2.4-11.2c0.1-0.9,0.5-1.6,1.1-2.3c0.7-0.5,1.6-0.8,2.4-0.7h9.7l-0.7,3.4h-7.8c-0.3,0-0.6,0-0.8,0.2c-0.2,0.2-0.3,0.5-0.3,0.8
	l-1.8,8.4c0,0.1,0,0.2,0,0.2c0,0.1,0,0.1,0,0.2c0,0.2,0.1,0.3,0.2,0.4c0.2,0.1,0.4,0.2,0.7,0.1h7.8l-0.8,3.5H46.9z"/>
<linearGradient id="SVGID_4_" gradientUnits="userSpaceOnUse" x1="24.23" y1="51.2" x2="77.12" y2="51.2" gradientTransform="matrix(1 0 0 -1 -0.78 99.22)">
	<stop  offset="0" style="stop-color:#2981F2"/>
	<stop  offset="1" style="stop-color:#276EBF"/>
</linearGradient>
<path class="st4" d="M59,56.6l2.7-12.5h3.8l-2,9.2h5.4c0.9,0,1.5-0.5,1.7-1.7l1.6-7.2c0-0.2,0.1-0.4,0.1-0.6c0-0.7-0.4-1.1-1.1-1.1
	h-9.3l0.7-3.4h9.9c2.5,0,3.8,1,3.8,3c0,0.5,0,0.9-0.1,1.4l-1.8,8.4c-0.2,1.3-0.8,2.4-1.8,3.3c-1,0.8-2.3,1.2-3.6,1.1L59,56.6z"/>
</svg>
