<?xml version="1.0" encoding="utf-8"?>
<!-- Generator: Adobe Illustrator 24.3.0, SVG Export Plug-In . SVG Version: 6.00 Build 0)  -->
<svg version="1.1" id="Layer_1" xmlns="http://www.w3.org/2000/svg" xmlns:xlink="http://www.w3.org/1999/xlink" x="0px" y="0px"
	 viewBox="0 0 106.5 122.9" style="enable-background:new 0 0 106.5 122.9;" xml:space="preserve">
<style type="text/css">
	.st0{fill:url(#SVGID_1_);}
	.st1{fill:none;stroke:url(#SVGID_2_);stroke-width:0.5986;stroke-miterlimit:10;}
	.st2{fill:#E6E7E8;}
	.st3{fill:url(#SVGID_3_);}
	.st4{fill:url(#SVGID_4_);}
	.st5{fill:url(#SVGID_5_);}
</style>
<linearGradient id="SVGID_1_" gradientUnits="userSpaceOnUse" x1="4.75" y1="11558.1064" x2="101.75" y2="11558.1064" gradientTransform="matrix(1 0 0 4.195065e-02 0 -423.4201)">
	<stop  offset="5.201860e-07" style="stop-color:#276FC1"/>
	<stop  offset="1" style="stop-color:#2981F2"/>
</linearGradient>
<path class="st0" d="M9.3,40.3h18.5c1.1,0,2-0.9,2-2v-1.1c0.3-9.6,11-17.2,23.9-17c12.6,0.2,22.8,7.7,23,17v1.1c0,1.1,0.9,2,2,2
	h18.6c1.2,0,2.3,0.4,3.2,1l0,0c0.8,0.6,1.3,1.5,1.3,2.3v47.2c0,6.6-7.2,11.9-16.1,11.9H20.9c-8.9,0-16.1-5.4-16.1-11.9V43.6
	c0-0.9,0.5-1.7,1.3-2.3l0,0C7,40.7,8.1,40.3,9.3,40.3L9.3,40.3z M37.5,40.3H69c1.1,0,2-0.9,2-2v-1.1C71,29.9,63,24,53.2,24
	s-17.8,5.9-17.8,13.2v1.1C35.5,39.4,36.4,40.3,37.5,40.3z M71,44.3v0.2H35.5v-0.2 M29.8,44.5H12.5c-1.1,0-2,0.9-2,2v44.3
	c0,1.1,0.9,2,2,2h81.6c1.1,0,2-0.9,2-2V46.5c0-1.1-0.9-2-2-2H76.7"/>
<g>
	
		<linearGradient id="SVGID_2_" gradientUnits="userSpaceOnUse" x1="37.1883" y1="54.5495" x2="69.331" y2="54.5495" gradientTransform="matrix(1 0 0 -1 0 124)">
		<stop  offset="0" style="stop-color:#2981F2"/>
		<stop  offset="1" style="stop-color:#276EBF"/>
	</linearGradient>
	<circle class="st1" cx="53.2" cy="69.5" r="15.8"/>
	<ellipse class="st2" cx="53.3" cy="69.5" rx="10.5" ry="10.5"/>
	<g>
		<g>
			<path d="M49.7,71.9l0.7-3.4l-2.1,3.4h-1l-0.7-3.4l-0.7,3.4h-1l1.2-5.6h1.4l0.7,3.9l2.4-3.9h1.3l-1.2,5.6H49.7z"/>
			<path d="M52.4,71.9c-0.3,0-0.5,0-0.6-0.1s-0.2-0.3-0.2-0.5c0-0.1,0-0.1,0-0.2s0-0.1,0-0.2l0.8-3.7c0.1-0.3,0.2-0.6,0.4-0.7
				c0.2-0.2,0.4-0.2,0.8-0.2h3.2l-0.2,1.1h-2.5c-0.1,0-0.2,0-0.3,0.1c0,0-0.1,0.1-0.1,0.3l-0.6,2.7v0.1c0,0,0,0,0,0.1s0,0.1,0.1,0.1
				c0,0,0.1,0,0.2,0h2.6l-0.2,1.1C55.8,71.9,52.4,71.9,52.4,71.9z"/>
			<path d="M56.4,71.9l0.9-4.1h1.2l-0.6,3h1.8c0.3,0,0.5-0.2,0.6-0.5l0.5-2.3c0-0.1,0-0.1,0-0.2c0-0.2-0.1-0.3-0.4-0.3h-3l0.2-1.1
				h3.2c0.8,0,1.2,0.3,1.2,1c0,0.1,0,0.3,0,0.4l-0.6,2.7c-0.1,0.5-0.3,0.8-0.6,1.1c-0.3,0.2-0.7,0.4-1.2,0.4L56.4,71.9L56.4,71.9z"
				/>
		</g>
		<g>
			
				<linearGradient id="SVGID_3_" gradientUnits="userSpaceOnUse" x1="45.1053" y1="49.5878" x2="62.3738" y2="49.5878" gradientTransform="matrix(1 0 0 -1 -0.2553 118.6383)">
				<stop  offset="0" style="stop-color:#2981F2"/>
				<stop  offset="1" style="stop-color:#276EBF"/>
			</linearGradient>
			<path class="st3" d="M49.7,71.9l0.7-3.4l-2.1,3.4h-1l-0.7-3.4l-0.7,3.4h-1l1.2-5.6h1.4l0.7,3.9l2.4-3.9h1.3l-1.2,5.6H49.7z"/>
			
				<linearGradient id="SVGID_4_" gradientUnits="userSpaceOnUse" x1="45.1007" y1="49.5878" x2="62.3692" y2="49.5878" gradientTransform="matrix(1 0 0 -1 -0.2553 118.6383)">
				<stop  offset="0" style="stop-color:#2981F2"/>
				<stop  offset="1" style="stop-color:#276EBF"/>
			</linearGradient>
			<path class="st4" d="M52.4,71.9c-0.3,0-0.5,0-0.6-0.1s-0.2-0.3-0.2-0.5c0-0.1,0-0.1,0-0.2s0-0.1,0-0.2l0.8-3.7
				c0.1-0.3,0.2-0.6,0.4-0.7c0.2-0.2,0.4-0.2,0.8-0.2h3.2l-0.2,1.1h-2.5c-0.1,0-0.2,0-0.3,0.1c0,0-0.1,0.1-0.1,0.3l-0.6,2.7v0.1
				c0,0,0,0,0,0.1s0,0.1,0.1,0.1c0,0,0.1,0,0.2,0h2.6l-0.2,1.1C55.8,71.9,52.4,71.9,52.4,71.9z"/>
			
				<linearGradient id="SVGID_5_" gradientUnits="userSpaceOnUse" x1="45.1007" y1="49.4878" x2="62.3692" y2="49.4878" gradientTransform="matrix(1 0 0 -1 -0.2553 118.6383)">
				<stop  offset="0" style="stop-color:#2981F2"/>
				<stop  offset="1" style="stop-color:#276EBF"/>
			</linearGradient>
			<path class="st5" d="M56.4,71.9l0.9-4.1h1.2l-0.6,3h1.8c0.3,0,0.5-0.2,0.6-0.5l0.5-2.3c0-0.1,0-0.1,0-0.2c0-0.2-0.1-0.3-0.4-0.3
				h-3l0.2-1.1h3.2c0.8,0,1.2,0.3,1.2,1c0,0.1,0,0.3,0,0.4l-0.6,2.7c-0.1,0.5-0.3,0.8-0.6,1.1c-0.3,0.2-0.7,0.4-1.2,0.4L56.4,71.9
				L56.4,71.9z"/>
		</g>
	</g>
</g>
</svg>
