<?xml version="1.0" encoding="utf-8"?>
<!-- Generator: Adobe Illustrator 24.3.0, SVG Export Plug-In . SVG Version: 6.00 Build 0)  -->
<svg version="1.1" id="Layer_1" xmlns="http://www.w3.org/2000/svg" xmlns:xlink="http://www.w3.org/1999/xlink" x="0px" y="0px"
	 viewBox="0 0 106.5 122.9" style="enable-background:new 0 0 106.5 122.9;" xml:space="preserve">
<style type="text/css">
	.st0{fill:url(#SVGID_1_);}
	.st1{fill:url(#SVGID_2_);}
	.st2{fill:url(#SVGID_3_);}
	.st3{fill:url(#SVGID_4_);}
</style>
<linearGradient id="SVGID_1_" gradientUnits="userSpaceOnUse" x1="4.8" y1="-33153.5547" x2="101.8" y2="-33153.5547" gradientTransform="matrix(1 0 0 -4.195065e-02 0 -1329.3651)">
	<stop  offset="5.201860e-07" style="stop-color:#276FC1"/>
	<stop  offset="1" style="stop-color:#2981F2"/>
</linearGradient>
<path class="st0" d="M9.3,40.3h18.5c1.1,0,2-0.9,2-2v-1.1c0.3-9.6,11-17.2,23.9-17c12.6,0.2,22.8,7.7,23,17v1.1c0,1.1,0.9,2,2,2
	h18.6c1.2,0,2.3,0.4,3.2,1l0,0c0.8,0.6,1.3,1.5,1.3,2.3v47.2c0,6.6-7.2,11.9-16.1,11.9H20.9c-8.9,0-16.1-5.4-16.1-11.9V43.6
	c0-0.9,0.5-1.7,1.3-2.3l0,0C7,40.7,8.1,40.3,9.3,40.3L9.3,40.3z M37.5,40.3H69c1.1,0,2-0.9,2-2v-1.1C71,29.9,63,24,53.2,24
	s-17.8,5.9-17.8,13.2v1.1C35.5,39.4,36.4,40.3,37.5,40.3z M71,44.3v0.2H35.5v-0.2 M29.8,44.5H12.5c-1.1,0-2,0.9-2,2v44.3
	c0,1.1,0.9,2,2,2h81.6c1.1,0,2-0.9,2-2V46.5c0-1.1-0.9-2-2-2H76.7"/>
<g>
	<g>
		<g>
			<path d="M40.5,78.6l2.4-11.7l-7.3,11.7h-3.5l-2.4-11.7l-2.4,11.7h-3.5l4.1-19.3h4.8l2.4,13.5l8.3-13.5h4.5L44,78.6H40.5z"/>
			<path d="M49.8,78.6c-1,0-1.7,0-2.1-0.3c-0.3-0.3-0.7-1-0.7-1.7c0-0.3,0-0.3,0-0.7c0-0.3,0-0.3,0-0.7l2.8-12.8
				c0.3-1,0.7-2.1,1.4-2.4c0.7-0.7,1.4-0.7,2.8-0.7H65l-0.7,3.8h-8.6c-0.3,0-0.7,0-1,0.3c0,0-0.3,0.3-0.3,1l-2.1,9.3v0.3
				c0,0,0,0,0,0.3s0,0.3,0.3,0.3c0,0,0.3,0,0.7,0h9l-0.7,3.8C61.6,78.6,49.8,78.6,49.8,78.6z"/>
			<path d="M63.6,78.6l3.1-14.2h4.1l-2.1,10.4H75c1,0,1.7-0.7,2.1-1.7l1.7-7.9c0-0.3,0-0.3,0-0.7c0-0.7-0.3-1-1.4-1H67.1l0.7-3.8
				h11.1c2.8,0,4.1,1,4.1,3.5c0,0.3,0,1,0,1.4l-2.1,9.3c-0.3,1.7-1,2.8-2.1,3.8c-1,0.7-2.4,1.4-4.1,1.4L63.6,78.6L63.6,78.6z"/>
		</g>
		<g>
			
				<linearGradient id="SVGID_2_" gradientUnits="userSpaceOnUse" x1="24.0029" y1="1975.339" x2="83.6443" y2="1975.339" gradientTransform="matrix(1 0 0 1 -0.2553 -1906.3617)">
				<stop  offset="0" style="stop-color:#2981F2"/>
				<stop  offset="1" style="stop-color:#276EBF"/>
			</linearGradient>
			<path class="st1" d="M40.5,78.6l2.4-11.7l-7.3,11.7h-3.5l-2.4-11.7l-2.4,11.7h-3.5l4.1-19.3h4.8l2.4,13.5l8.3-13.5h4.5L44,78.6
				H40.5z"/>
			
				<linearGradient id="SVGID_3_" gradientUnits="userSpaceOnUse" x1="23.987" y1="1975.3391" x2="83.6284" y2="1975.3391" gradientTransform="matrix(1 0 0 1 -0.2553 -1906.3617)">
				<stop  offset="0" style="stop-color:#2981F2"/>
				<stop  offset="1" style="stop-color:#276EBF"/>
			</linearGradient>
			<path class="st2" d="M49.8,78.6c-1,0-1.7,0-2.1-0.3c-0.3-0.3-0.7-1-0.7-1.7c0-0.3,0-0.3,0-0.7c0-0.3,0-0.3,0-0.7l2.8-12.8
				c0.3-1,0.7-2.1,1.4-2.4c0.7-0.7,1.4-0.7,2.8-0.7H65l-0.7,3.8h-8.6c-0.3,0-0.7,0-1,0.3c0,0-0.3,0.3-0.3,1l-2.1,9.3v0.3
				c0,0,0,0,0,0.3s0,0.3,0.3,0.3c0,0,0.3,0,0.7,0h9l-0.7,3.8C61.6,78.6,49.8,78.6,49.8,78.6z"/>
			
				<linearGradient id="SVGID_4_" gradientUnits="userSpaceOnUse" x1="23.987" y1="1975.6844" x2="83.6284" y2="1975.6844" gradientTransform="matrix(1 0 0 1 -0.2553 -1906.3617)">
				<stop  offset="0" style="stop-color:#2981F2"/>
				<stop  offset="1" style="stop-color:#276EBF"/>
			</linearGradient>
			<path class="st3" d="M63.6,78.6l3.1-14.2h4.1l-2.1,10.4H75c1,0,1.7-0.7,2.1-1.7l1.7-7.9c0-0.3,0-0.3,0-0.7c0-0.7-0.3-1-1.4-1
				H67.1l0.7-3.8h11.1c2.8,0,4.1,1,4.1,3.5c0,0.3,0,1,0,1.4l-2.1,9.3c-0.3,1.7-1,2.8-2.1,3.8c-1,0.7-2.4,1.4-4.1,1.4L63.6,78.6
				L63.6,78.6z"/>
		</g>
	</g>
</g>
</svg>
